<?xml version="1.0" encoding="iso-8859-1"?>
<!-- Generator: Adobe Illustrator 19.0.0, SVG Export Plug-In . SVG Version: 6.00 Build 0)  -->
<svg version="1.1" id="Layer_1" xmlns="http://www.w3.org/2000/svg" xmlns:xlink="http://www.w3.org/1999/xlink" x="0px" y="0px"
	 viewBox="0 0 487.983 487.983" style="enable-background:new 0 0 487.983 487.983;" xml:space="preserve">
<g transform="translate(0 -540.36)">
	<g>
		<g>
			<path d="M375.9,967.301c-16.6,0-30.1,13.7-30.1,30.5s13.5,30.5,30.1,30.5c17,0,30.9-13.7,30.9-30.5S392.9,967.301,375.9,967.301z
				 M375.9,1008.301c-5.5,0-10.1-4.8-10.1-10.5s4.6-10.5,10.1-10.5c6.1,0,10.9,4.6,10.9,10.5S382,1008.301,375.9,1008.301z"/>
			<path d="M55.7,916.901c-30.7,0-55.7,25-55.7,55.7s25,55.7,55.7,55.7c30.8,0,55.8-25,55.7-55.7
				C111.4,941.901,86.4,916.901,55.7,916.901z M55.7,1008.301c-19.7,0-35.7-16-35.7-35.8c0-19.7,16-35.7,35.7-35.7v0
				c19.7,0,35.8,16.1,35.7,35.8C91.4,992.301,75.4,1008.301,55.7,1008.301z"/>
			<path d="M228.8,916.901c-30.7,0-55.7,25-55.7,55.7s25,55.7,55.7,55.7s55.7-25,55.7-55.7S259.5,916.901,228.8,916.901z
				 M228.8,1008.201c-19.7,0-35.7-16-35.7-35.7s16-35.7,35.7-35.7s35.7,16.1,35.7,35.7C264.5,992.201,248.5,1008.201,228.8,1008.201
				z"/>
			<path d="M324.8,977.801H305c-5.5,0-10,4.5-10,10c0,5.5,4.5,10,10,10h19.8c5.5,0,10-4.5,10-10
				C334.8,982.301,330.3,977.801,324.8,977.801z"/>
			<path d="M152.5,977.801h-19.8c-5.5,0-10,4.5-10,10c0,5.5,4.5,10,10,10h19.8c5.6,0,10-4.5,10-10
				C162.5,982.301,158,977.801,152.5,977.801z"/>
			<path d="M436.8,865.201c5.6,0,10-4.5,10-10v-50.3c0-5.5-4.5-10-10-10s-10,4.5-10,10v50.3
				C426.8,860.701,431.3,865.201,436.8,865.201z"/>
			<path d="M142.6,834.701c5.5,0,10-4.5,10.1-10v-80.8c0-5.5-4.5-10-10-10H61.1c-5.5,0-10,4.5-10,10v80.8c0,5.5,4.5,10,10,10H142.6z
				 M71.1,753.901h61.6v60.8H71.1V753.901z"/>
			<path d="M289.7,651.801c14,0,25.3-11.4,25.2-25.2c0-13.9-11.3-25.2-25.2-25.2c-13.9,0-25.2,11.3-25.2,25.2
				S275.8,651.801,289.7,651.801z M289.7,621.301c2.9,0,5.3,2.4,5.2,5.2c0,2.8-2.4,5.2-5.2,5.2c-2.8,0-5.2-2.4-5.2-5.2
				S286.9,621.301,289.7,621.301z"/>
			<path d="M320.2,590.801c13.9,0,25.3-11.3,25.2-25.2c0-13.9-11.3-25.2-25.2-25.2c-13.9,0-25.2,11.3-25.2,25.2
				S306.3,590.801,320.2,590.801z M320.2,560.301c2.9,0,5.3,2.4,5.2,5.2c0,2.8-2.4,5.2-5.2,5.2c-2.8,0-5.2-2.4-5.2-5.2
				S317.4,560.301,320.2,560.301z"/>
			<path d="M335.4,616.701c0,13.9,11.3,25.2,25.2,25.2c13.9,0,25.3-11.4,25.2-25.2c0-13.9-11.3-25.2-25.2-25.2
				S335.4,602.801,335.4,616.701z M360.6,611.401c2.9,0,5.2,2.4,5.2,5.2s-2.4,5.2-5.2,5.2s-5.2-2.4-5.2-5.2
				S357.8,611.401,360.6,611.401z"/>
			<path d="M485.5,981.201L485.5,981.201l-79-88.6v-98.3c0-5.5-4.5-10-10-10h-41.1v-58.5l19.5-38.3c1.6-3.1,1.4-6.8-0.4-9.8
				s-5-4.8-8.5-4.8h-81.6c-3.5,0-6.7,1.8-8.5,4.8s-2,6.7-0.4,9.8l19.5,38.3v58.5H193v-70.8c0-5-3.7-9.3-8.7-9.9l-81.6-10.7
				c-0.9-0.1-1.7-0.1-2.6,0l-80.8,10.7c-5,0.7-8.7,4.9-8.7,9.9v192.8c0,5.5,4.5,10,10,10s10-4.5,10-10v-184.1l70.8-9.4l71.6,9.4
				v143.7c0,5.5,4.5,10,10,10s10-4.5,10-10v-61.6h193.4v92c0,2.5,0.9,4.8,2.5,6.7l66.7,74.8h-28.8c-5.5,0-10,4.5-10,10
				c0,5.5,4.5,10,10,10H478c3.9,0,7.5-2.3,9.1-5.9C488.7,988.301,488.1,984.101,485.5,981.201z M335.4,784.201H315v-50.9h20.4
				V784.201z M339.2,713.301h-28.1l-10.4-20.4h48.9L339.2,713.301z"/>
		</g>
	</g>
</g>
<g>
</g>
<g>
</g>
<g>
</g>
<g>
</g>
<g>
</g>
<g>
</g>
<g>
</g>
<g>
</g>
<g>
</g>
<g>
</g>
<g>
</g>
<g>
</g>
<g>
</g>
<g>
</g>
<g>
</g>
</svg>
